# Blender v2.76 (sub 0) OBJ File: 'enemy_ship.blend'
# www.blender.org
mtllib enemy_ship2.mtl
g Unit1
v 0.349789 0.032077 0.079173
v 0.349789 0.217923 0.079173
v 0.349789 0.032077 -0.255025
v 0.349789 0.217923 -0.255025
v 0.210184 0.123955 0.360279
v 0.210184 0.032077 0.360279
v 0.603873 0.168333 0.404407
v 0.603873 0.074680 0.404407
v 0.605032 0.168333 -0.374517
v 0.605032 0.074680 -0.374517
v 0.189116 0.217923 -0.374062
v 0.189116 0.032077 -0.374062
v 0.191999 0.123955 0.360279
v 0.181465 0.217923 -0.374062
v 0.186732 0.217923 0.198525
v 0.184098 0.217923 0.157151
v 0.181465 0.312749 0.061152
v 0.182781 0.217923 -0.003221
v 0.354822 0.137063 0.075942
v 0.354845 0.137063 -0.256164
v 0.354822 0.105950 0.075942
v 0.354845 0.105950 -0.256164
v 0.751231 0.168333 -0.375643
v 0.915177 0.168333 0.044099
v 0.915177 0.074680 0.044099
v 0.751231 0.074680 -0.375643
v 0.596223 0.137063 -0.078986
v 0.596223 0.105950 -0.078986
v 0.597347 0.105950 -0.298046
v 0.597347 0.137063 -0.298046
v 0.471003 0.168333 0.561493
v 0.471003 0.074680 0.561493
v 0.345210 0.168333 0.532020
v 0.345210 0.074680 0.532020
v 0.543115 0.168333 -0.032529
v 0.543115 0.074680 -0.032529
v 0.587429 0.168333 -0.376286
v 0.587429 0.074680 -0.376286
v 0.579744 0.074680 -0.299815
v 0.579744 0.168333 -0.299815
v 0.604452 0.168333 -0.083189
v 0.604742 0.168333 -0.300272
v 0.604452 0.074680 -0.298975
v 0.604163 0.074680 -0.081859
v 0.184098 0.265336 0.129839
v 0.152017 0.217923 0.198525
v 0.604163 0.168333 0.024086
v 0.408106 0.168333 0.546756
v 0.638471 0.168333 0.362632
v 0.637174 0.168333 -0.375080
v 0.637823 0.168333 -0.051718
v -0.349789 0.032077 0.079173
v -0.349789 0.217923 0.079173
v -0.349789 0.032077 -0.255025
v -0.349789 0.217923 -0.255025
v -0.210184 0.123955 0.360278
v -0.210184 0.032077 0.360278
v -0.603873 0.168333 0.404407
v -0.603873 0.074680 0.404407
v -0.605032 0.168333 -0.374517
v -0.605032 0.074680 -0.374517
v -0.189116 0.217923 -0.374062
v -0.189116 0.032077 -0.374062
v -0.191999 0.123955 0.360278
v -0.181465 0.217923 -0.374062
v -0.186732 0.217923 0.198525
v -0.184098 0.217923 0.157151
v -0.000000 0.123955 0.360278
v -0.000000 0.032077 0.360278
v -0.000000 0.032077 -0.374062
v -0.000000 0.217923 -0.374062
v -0.000000 0.217923 0.198525
v -0.181465 0.312749 0.061152
v -0.000000 0.312749 0.061152
v -0.182781 0.217923 -0.003221
v -0.354822 0.137063 0.075942
v -0.354845 0.137063 -0.256164
v -0.354822 0.105950 0.075942
v -0.354845 0.105950 -0.256164
v -0.751231 0.168333 -0.375643
v -0.915177 0.168333 0.044099
v -0.915177 0.074680 0.044099
v -0.751231 0.074680 -0.375643
v -0.596223 0.137063 -0.078986
v -0.596223 0.105950 -0.078986
v -0.597347 0.105950 -0.298046
v -0.597347 0.137063 -0.298046
v -0.471004 0.168333 0.561492
v -0.471004 0.074680 0.561492
v -0.345210 0.168333 0.532020
v -0.345210 0.074680 0.532020
v -0.543115 0.168333 -0.032529
v -0.543115 0.074680 -0.032529
v -0.587429 0.168333 -0.376286
v -0.587429 0.074680 -0.376286
v -0.579744 0.074680 -0.299815
v -0.579744 0.168333 -0.299815
v -0.604452 0.168333 -0.083189
v -0.604742 0.168333 -0.300272
v -0.604452 0.074680 -0.298975
v -0.604163 0.074680 -0.081859
v -0.184098 0.265336 0.129838
v -0.152017 0.217923 0.198525
v -0.604163 0.168333 0.024086
v -0.408107 0.168333 0.546756
v -0.638471 0.168333 0.362632
v -0.637174 0.168333 -0.375080
v -0.637823 0.168333 -0.051718
vt 0.124167 0.065519
vt 0.131874 0.067826
vt 0.131874 0.070082
vt 0.124167 0.070082
vt 0.115870 0.070393
vt 0.120780 0.070393
vt 0.120780 0.074956
vt 0.115870 0.074956
vt 0.017792 0.184442
vt 0.015884 0.176300
vt 0.017448 0.173236
vt 0.019609 0.173236
vt 0.018540 0.183182
vt 0.018394 0.184526
vt 0.058604 0.075464
vt 0.079142 0.075404
vt 0.105459 0.075315
vt 0.085314 0.092990
vt 0.058604 0.082709
vt 0.184729 0.038093
vt 0.184840 0.039657
vt 0.174147 0.039603
vt 0.174245 0.038208
vt 0.660474 0.722826
vt 0.660474 0.752645
vt 0.657738 0.752652
vt 0.657738 0.722833
vt 0.125424 0.070393
vt 0.125424 0.074956
vt 0.120968 0.074956
vt 0.132320 0.067826
vt 0.137034 0.067826
vt 0.137034 0.070082
vt 0.023849 0.188031
vt 0.024221 0.182043
vt 0.027036 0.177163
vt 0.030801 0.177397
vt 0.029983 0.190553
vt 0.026595 0.190342
vt 0.088987 0.091539
vt 0.070499 0.091263
vt 0.064046 0.082276
vt 0.064053 0.081853
vt 0.084567 0.082232
vt 0.093438 0.082438
vt 0.095653 0.081842
vt 0.105861 0.083574
vt 0.105720 0.084571
vt 0.113838 0.085631
vt 0.113838 0.076043
vt 0.137372 0.076043
vt 0.137372 0.085631
vt 0.145412 0.085311
vt 0.137460 0.085594
vt 0.137381 0.066455
vt 0.074156 0.033060
vt 0.066081 0.038263
vt 0.074227 0.030091
vt 0.137381 0.093568
vt 0.145415 0.085449
vt 0.145561 0.093419
vt 0.078551 0.030228
vt 0.077649 0.030810
vt 0.076389 0.030160
vt 0.537691 0.684833
vt 0.662485 0.684834
vt 0.615110 0.685607
vt 0.585066 0.685607
vt 0.115966 0.065240
vt 0.124020 0.067504
vt 0.115870 0.067227
vt 0.124020 0.068268
vt 0.022521 0.187969
vt 0.022891 0.182019
vt 0.120075 0.068943
vt 0.139656 0.068943
vt 0.139656 0.073012
vt 0.120075 0.073012
vt 0.113722 0.073013
vt 0.113722 0.068943
vt 0.115119 0.068943
vt 0.160347 0.068943
vt 0.160346 0.073013
vt 0.157990 0.068943
vt 0.017577 0.188617
vt 0.017049 0.189827
vt 0.015043 0.189536
vt 0.012180 0.182755
vt 0.121913 0.075731
vt 0.121913 0.076495
vt 0.115870 0.076495
vt 0.115870 0.075731
vt 0.066807 0.085184
vt 0.082702 0.085090
vt 0.075354 0.096687
vt 0.064870 0.096802
vt 0.116976 0.068268
vt 0.116976 0.067504
vt 0.018130 0.188449
vt 0.240922 0.029647
vt 0.240922 0.033205
vt 0.236012 0.033205
vt 0.236012 0.029647
vt 0.238467 0.029647
vt 0.228194 0.033205
vt 0.228194 0.029647
vt 0.184088 0.036938
vt 0.186063 0.034322
vt 0.187994 0.037799
vt 0.263654 0.029647
vt 0.263654 0.033205
vt 0.259850 0.029643
vt 0.259164 0.025945
vt 0.261893 0.026075
vt 0.262885 0.029080
vt 0.262303 0.025563
vt 0.263654 0.028791
vt 0.017896 0.188937
vt 0.017259 0.189951
vt 0.257854 0.024740
vt 0.259450 0.024740
vt 0.189549 0.040711
vt 0.212008 0.037861
vt 0.212010 0.040454
vt 0.204659 0.044216
vt 0.078551 0.025391
vt 0.078551 0.029328
vt 0.074227 0.025391
vt 0.202689 0.045202
vt 0.186161 0.041360
vt 0.170802 0.040972
vt 0.170857 0.039548
vt 0.212010 0.035250
vt 0.149902 0.065519
vt 0.149902 0.070082
vt 0.142195 0.070082
vt 0.142195 0.067826
vt 0.134977 0.070393
vt 0.134977 0.074956
vt 0.130067 0.074956
vt 0.130067 0.070393
vt 0.017834 0.196004
vt 0.017748 0.195387
vt 0.019127 0.195237
vt 0.029336 0.194140
vt 0.029336 0.196357
vt 0.026190 0.197963
vt 0.061401 0.086055
vt 0.061401 0.078769
vt 0.088263 0.068430
vt 0.108521 0.086204
vt 0.082055 0.086115
vt 0.244233 0.033392
vt 0.234825 0.031543
vt 0.235105 0.030118
vt 0.244220 0.031920
vt 0.234497 0.032727
vt 0.233494 0.033731
vt 0.234306 0.030663
vt 0.129879 0.074956
vt 0.141749 0.067826
vt 0.036382 0.188810
vt 0.033371 0.190764
vt 0.034567 0.177631
vt 0.036755 0.182823
vt 0.089122 0.072038
vt 0.105750 0.079256
vt 0.105876 0.080254
vt 0.095643 0.081834
vt 0.093437 0.081205
vt 0.084564 0.081278
vt 0.064046 0.081351
vt 0.064046 0.080928
vt 0.070632 0.072038
vt 0.113838 0.066455
vt 0.153367 0.085166
vt 0.153704 0.085285
vt 0.153371 0.085304
vt 0.074156 0.017722
vt 0.074227 0.020690
vt 0.066081 0.012519
vt 0.153741 0.093270
vt 0.078551 0.020554
vt 0.076389 0.020622
vt 0.077649 0.019972
vt 0.158103 0.065240
vt 0.158199 0.067227
vt 0.150049 0.067504
vt 0.150049 0.068268
vt 0.158198 0.068571
vt 0.158103 0.070387
vt 0.120075 0.064868
vt 0.139656 0.064868
vt 0.113722 0.064867
vt 0.160346 0.064867
vt 0.019566 0.201765
vt 0.012605 0.198826
vt 0.012307 0.196768
vt 0.013549 0.196225
vt 0.121913 0.074962
vt 0.061427 0.078601
vt 0.064326 0.067184
vt 0.073879 0.071505
vt 0.075943 0.085078
vt 0.157092 0.067504
vt 0.157092 0.068268
vt 0.020321 0.190771
vt 0.013721 0.195658
vt 0.014214 0.191151
vt 0.265931 0.028755
vt 0.266173 0.027122
vt 0.266359 0.025310
vt 0.270458 0.023796
vt 0.269714 0.031329
vt 0.262314 0.018028
vt 0.260552 0.021826
vt 0.247312 0.032815
vt 0.247170 0.036522
vt 0.243974 0.034783
vt 0.230417 0.031569
vt 0.233032 0.029854
vt 0.233003 0.029430
vt 0.230003 0.030802
vt 0.012180 0.196552
vt 0.013220 0.195898
vt 0.188719 0.012453
vt 0.203963 0.015319
vt 0.209182 0.021719
vt 0.208137 0.024092
vt 0.078551 0.021453
vt 0.185879 0.010496
vt 0.202557 0.013624
vt 0.171660 0.004676
vt 0.183984 0.011524
vt 0.174172 0.007274
vt 0.171137 0.006001
vt 0.207089 0.026485
vt 0.186125 0.014493
vn 0.895600 0.000000 0.444800
vn 0.595300 0.000000 -0.803500
vn -0.008800 -0.999900 -0.010900
vn 0.000000 1.000000 -0.000000
vn -0.970300 0.242100 -0.003100
vn -0.100000 0.000000 0.995000
vn 0.000000 0.000000 -1.000000
vn -0.000000 -0.000000 1.000000
vn 0.000000 -1.000000 0.000000
vn 0.060300 0.994000 0.091600
vn 0.000000 0.977100 -0.212900
vn 0.000000 0.823000 0.568100
vn 0.999900 0.016300 -0.003600
vn -0.000000 0.864700 0.502300
vn 0.999800 0.007900 -0.019600
vn -0.219800 0.000000 -0.975500
vn 0.998100 0.062300 0.000000
vn 0.540100 0.000000 0.841600
vn 0.997700 -0.068100 0.000000
vn 0.931500 0.000000 -0.363800
vn -0.007700 -0.001700 -1.000000
vn 0.756700 0.006000 0.653800
vn -0.170200 0.000000 -0.985400
vn -0.228100 0.000000 0.973600
vn 0.763500 0.000000 0.645800
vn -0.658400 0.000000 -0.752700
vn -0.943700 0.000000 -0.330800
vn -0.995000 0.000000 -0.100000
vn 0.100000 0.000000 -0.995000
vn -0.972300 -0.233700 -0.003200
vn -0.007900 -0.972900 0.230900
vn 0.004300 0.972600 0.232600
vn -0.635500 0.063800 -0.769400
vn -0.895600 0.000000 0.444800
vn -0.595300 0.000000 -0.803500
vn 0.008800 -0.999900 -0.010900
vn 0.970300 0.242100 -0.003100
vn 0.100000 0.000000 0.995000
vn -0.060300 0.994000 0.091600
vn -0.999900 0.016300 -0.003600
vn -0.999800 0.007900 -0.019600
vn 0.219800 0.000000 -0.975500
vn -0.998100 0.062300 0.000000
vn -0.540100 0.000000 0.841600
vn -0.997700 -0.068100 0.000000
vn -0.931500 0.000000 -0.363800
vn 0.007700 -0.001700 -1.000000
vn -0.756700 0.006000 0.653800
vn 0.170200 0.000000 -0.985400
vn 0.228100 -0.000000 0.973600
vn -0.763500 0.000000 0.645800
vn 0.658400 0.000000 -0.752700
vn 0.943700 0.000000 -0.330800
vn 0.995000 0.000000 -0.100000
vn -0.100000 0.000000 -0.995000
vn 0.972300 -0.233700 -0.003200
vn 0.007900 -0.972900 0.230900
vn -0.004300 0.972600 0.232600
vn 0.635500 0.063800 -0.769400
usemtl Unit1
s off
f 2/1/1 5/2/1 6/3/1 1/4/1
f 3/5/2 12/6/2 11/7/2 4/8/2
f 44/9/3 8/10/3 32/11/3 34/12/3 36/13/3 28/14/3
f 50/15/4 51/16/4 49/17/4 24/18/4 23/19/4
f 27/20/5 41/21/5 42/22/5 30/23/5
f 29/24/6 30/25/6 40/26/6 39/27/6
f 12/6/7 70/28/7 71/29/7 14/30/7 11/7/7
f 5/2/8 13/31/8 68/32/8 69/33/8 6/3/8
f 3/34/9 1/35/9 6/36/9 69/37/9 70/38/9 12/39/9
f 2/40/10 4/41/10 11/42/10 14/43/10 18/44/10 16/45/10 15/46/10 13/47/10 5/48/10
f 14/49/11 71/50/11 74/51/11 17/52/11
f 46/53/12 15/54/12 45/55/12
f 18/56/13 14/57/13 17/58/13
f 13/59/14 15/54/14 46/53/14 72/60/14 68/61/14
f 15/62/15 16/63/15 18/56/15 17/58/15 45/64/15
f 3/65/16 4/66/16 20/67/16 22/68/16
f 4/69/17 2/1/17 19/70/17 20/71/17
f 2/1/18 1/4/18 21/72/18 19/70/18
f 1/35/19 3/34/19 22/73/19 21/74/19
f 23/75/20 24/76/20 25/77/20 26/78/20
f 10/79/21 9/80/21 50/81/21 23/75/21 26/78/21
f 7/82/22 8/83/22 25/77/22 24/76/22 49/84/22
f 8/10/9 44/9/9 43/85/9 10/86/9 26/87/9 25/88/9
f 22/89/23 20/90/23 30/91/23 29/92/23
f 20/93/4 19/94/4 27/95/4 30/96/4
f 19/70/18 21/72/18 28/97/18 27/98/18
f 21/74/9 22/73/9 29/99/9 28/14/9
f 33/100/24 34/101/24 32/102/24 31/103/24 48/104/24
f 8/105/25 7/106/25 31/103/25 32/102/25
f 27/20/26 28/107/26 36/108/26 35/109/26
f 33/100/27 35/110/27 36/111/27 34/101/27
f 39/112/28 40/113/28 37/114/28 38/115/28
f 9/116/29 10/117/29 38/115/29 37/114/29
f 44/9/30 28/14/30 29/99/30 43/85/30
f 10/86/31 43/85/31 29/99/31 39/118/31 38/119/31
f 37/114/32 40/113/32 30/120/32 42/121/32 9/116/32
f 47/122/4 48/123/4 31/124/4 7/125/4
f 72/126/12 46/127/12 45/64/12 17/58/12 74/128/12
f 27/20/33 35/109/33 41/21/33
f 7/125/4 49/129/4 51/130/4 47/122/4
f 50/131/4 9/132/4 42/22/4 41/21/4 47/122/4 51/130/4
f 33/133/4 48/123/4 47/122/4 41/21/4 35/109/4
f 53/134/34 52/135/34 57/136/34 56/137/34
f 54/138/35 55/139/35 62/140/35 63/141/35
f 101/142/36 85/143/36 93/144/36 91/145/36 89/146/36 59/147/36
f 107/148/4 80/149/4 81/150/4 106/151/4 108/152/4
f 84/153/37 87/154/37 99/155/37 98/156/37
f 86/157/38 96/158/38 97/159/38 87/154/38
f 63/141/7 62/140/7 65/160/7 71/29/7 70/28/7
f 56/137/8 57/136/8 69/33/8 68/32/8 64/161/8
f 54/162/9 63/163/9 70/38/9 69/37/9 57/164/9 52/165/9
f 53/166/39 56/167/39 64/168/39 66/169/39 67/170/39 75/171/39 65/172/39 62/173/39 55/174/39
f 65/175/11 73/55/11 74/51/11 71/50/11
f 103/176/12 102/177/12 66/178/12
f 75/179/40 73/180/40 65/181/40
f 64/182/14 68/61/14 72/60/14 103/176/14 66/178/14
f 66/183/41 102/184/41 73/180/41 75/179/41 67/185/41
f 54/65/42 79/68/42 77/67/42 55/66/42
f 55/186/43 77/187/43 76/188/43 53/134/43
f 53/134/44 76/188/44 78/189/44 52/135/44
f 52/135/45 78/189/45 79/190/45 54/191/45
f 80/75/46 83/192/46 82/193/46 81/76/46
f 61/194/47 83/192/47 80/75/47 107/81/47 60/80/47
f 58/82/48 106/84/48 81/76/48 82/193/48 59/195/48
f 59/147/9 82/196/9 83/197/9 61/198/9 100/199/9 101/142/9
f 79/8/49 86/200/49 87/89/49 77/92/49
f 77/201/4 87/202/4 84/203/4 76/204/4
f 76/188/44 84/205/44 85/206/44 78/189/44
f 78/207/9 85/143/9 86/208/9 79/209/9
f 90/210/50 105/211/50 88/212/50 89/213/50 91/214/50
f 59/215/51 89/213/51 88/212/51 58/216/51
f 84/153/52 92/217/52 93/218/52 85/219/52
f 90/210/53 91/214/53 93/218/53 92/217/53
f 96/158/54 95/220/54 94/221/54 97/159/54
f 60/222/55 94/221/55 95/220/55 61/223/55
f 101/142/56 100/199/56 86/208/56 85/143/56
f 61/198/57 95/224/57 96/225/57 86/208/57 100/199/57
f 94/221/58 60/222/58 99/155/58 87/154/58 97/159/58
f 104/226/4 58/227/4 88/228/4 105/229/4
f 72/126/12 74/128/12 73/180/12 102/184/12 103/230/12
f 84/153/59 98/156/59 92/217/59
f 58/227/4 104/226/4 108/231/4 106/232/4
f 107/233/4 108/231/4 104/226/4 98/234/4 99/235/4 60/236/4
f 90/237/4 92/238/4 98/234/4 104/226/4 105/229/4
